<?xml version="1.0" standalone="no"?><!DOCTYPE svg PUBLIC "-//W3C//DTD SVG 1.1//EN" "http://www.w3.org/Graphics/SVG/1.1/DTD/svg11.dtd"><svg class="icon" width="200px" height="200.00px" viewBox="0 0 1024 1024" version="1.1" xmlns="http://www.w3.org/2000/svg"><path fill="#333333" d="M737 647c-5.625-5.625-11.25-11.25-16.875-11.25-16.875 0-28.125 11.25-28.125 28.125 0 11.25 5.625 16.875 11.25 22.5C770.75 737 815.75 815.75 821.375 905.75h50.625c-5.625-106.875-56.25-196.875-135-258.75M523.25 551.375c-101.25 0-185.625-84.375-185.625-185.625C332 258.875 416.375 174.5 523.25 174.5 624.5 174.5 708.875 258.875 708.875 360.125c0 106.875-84.375 191.25-185.625 191.25zM765.125 365.75C765.125 230.75 658.25 118.25 517.625 118.25c-129.375 0-241.875 106.875-241.875 247.5 0 90 50.625 168.75 123.75 213.75-140.625 39.375-241.875 168.75-247.5 326.25H202.625c5.625-163.125 140.625-292.5 303.75-298.125H523.25c135 0 241.875-106.875 241.875-241.875z" /></svg>