<?xml version="1.0" standalone="no"?><!DOCTYPE svg PUBLIC "-//W3C//DTD SVG 1.1//EN" "http://www.w3.org/Graphics/SVG/1.1/DTD/svg11.dtd"><svg class="icon" width="200px" height="200.00px" viewBox="0 0 1024 1024" version="1.1" xmlns="http://www.w3.org/2000/svg"><path fill="#8a8a8a" d="M1007.459 360.138c-0.849-3.958-1.981-7.776-3.394-10.746l-79.466-193.433c-17.957-52.601-69.001-86.535-130.226-86.677H232.032c-60.66 0-109.3 32.381-126.269 82.294L18.804 353.068c-0.565 1.696-1.274 3.958-1.839 6.364-6.93 21.351-10.464 43.411-10.464 65.61 0.141 79.042 44.257 151.437 115.239 189.05 0.423 0.285 0.849 0.423 1.274 0.706 29.834 15.553 64.62 23.471 103.361 23.471 53.307-0.141 103.929-18.948 143.378-52.601 39.168 33.228 89.647 51.893 142.954 52.176 52.601-0.423 102.655-19.229 141.823-52.317 39.452 33.513 90.353 52.317 143.943 52.317 39.452-0.141 74.8-8.484 104.916-24.745 70.559-37.754 114.393-110.15 114.393-188.626-0.141-21.493-3.675-43.833-10.322-64.336zM872.848 558.802c-20.786 11.171-45.955 16.967-74.657 17.108-46.378 0-89.929-19.795-119.621-54.297-12.018-13.999-36.338-13.999-48.357 0-29.269 34.219-72.254 54.015-117.643 54.297-46.095-0.285-89.363-20.078-118.773-54.156-5.939-6.93-14.848-11.028-24.178-11.028-9.333 0-18.241 4.1-24.178 11.028-29.553 34.502-73.103 54.437-119.199 54.579-27.713 0-52.176-5.373-72.679-15.838-0.285-0.141-0.706-0.423-0.99-0.565-51.044-26.582-82.859-78.335-82.859-135.035 0-16.118 2.687-32.238 8.06-50.057l86.959-201.351c9.05-26.582 29.834-40.581 62.922-40.581h568.703c34.077 0.141 58.964 15.27 69.001 44.257l80.455 196.969c0.285 1.131 0.565 2.26 0.99 3.394 4.949 14.848 7.635 30.966 7.494 46.802 0 56.135-31.108 107.603-81.444 134.469zM766.233 353.917H257.766c-16.686 0-30.259 14.279-30.259 31.955s13.573 31.955 30.259 31.955h508.467c16.686 0 30.259-14.279 30.259-31.955s-13.434-31.955-30.259-31.955z m124.998 347.698c-16.402 0-31.532 15.27-31.532 31.532v157.941H164.442V733.289c0-16.26-15.27-31.532-31.532-31.532-16.402 0-31.532 15.27-31.532 31.532v191.877c0 16.26 13.293 29.553 29.553 29.553h762.277a29.45 29.45 0 0 0 29.553-29.553V733.289c0-16.26-15.129-31.674-31.532-31.674z" /></svg>