<?xml version="1.0" standalone="no"?><!DOCTYPE svg PUBLIC "-//W3C//DTD SVG 1.1//EN" "http://www.w3.org/Graphics/SVG/1.1/DTD/svg11.dtd"><svg class="icon" width="200px" height="200.00px" viewBox="0 0 1024 1024" version="1.1" xmlns="http://www.w3.org/2000/svg"><path fill="#8a8a8a" d="M919.161199 822.153973a511.474558 511.474558 0 1 0-606.422321 161.475788 505.580692 505.580692 0 0 0 199.099646 40.368947 512.604888 512.604888 0 0 0 233.171038-56.112836l180.045503 28.984904a47.312406 47.312406 0 0 0 49.169378-68.707948zM744.525134 871.969254a63.379247 63.379247 0 0 0-8.073789-0.484427 46.182075 46.182075 0 0 0-22.848824 5.974604 418.706718 418.706718 0 1 1 113.033051-92.041199 47.070192 47.070192 0 0 0-6.136079 52.964058l26.159077 50.138232z"  /><path fill="#8a8a8a" d="M682.099756 505.525968m-20.515644 49.529146a53.609962 53.609962 0 1 0 41.031288-99.058292 53.609962 53.609962 0 1 0-41.031288 99.058292Z"  /><path fill="#8a8a8a" d="M505.578025 505.58812m-52.917342 8.589696a53.609962 53.609962 0 1 0 105.834684-17.179393 53.609962 53.609962 0 1 0-105.834684 17.179393Z"  /><path fill="#8a8a8a" d="M328.967228 505.613037m-20.515644 49.529147a53.609962 53.609962 0 1 0 41.031288-99.058293 53.609962 53.609962 0 1 0-41.031288 99.058293Z"  /></svg>