<?xml version="1.0" standalone="no"?><!DOCTYPE svg PUBLIC "-//W3C//DTD SVG 1.1//EN" "http://www.w3.org/Graphics/SVG/1.1/DTD/svg11.dtd"><svg class="icon" width="200px" height="200.00px" viewBox="0 0 1024 1024" version="1.1" xmlns="http://www.w3.org/2000/svg"><path fill="#8a8a8a" d="M741.888 945.664c-12.8 0-26.624-3.584-39.936-10.24l-188.416-94.208-189.44 94.208c-11.776 6.144-25.6 9.728-39.936 9.728-18.432 0-35.84-5.632-50.688-16.384-26.624-19.968-39.936-54.272-33.792-85.504l38.912-201.216-148.48-138.24c-23.04-24.064-31.744-57.344-23.552-89.088l0.512-1.024c10.752-32.256 37.376-55.296 70.144-59.392l206.336-37.376 92.672-187.904c14.848-29.696 45.056-49.152 77.312-49.152 33.28 0 64.512 19.968 77.312 49.664l92.16 187.392 206.336 35.84c32.768 4.608 59.904 28.16 68.608 59.904 10.24 31.232 2.048 65.536-21.504 88.576l-0.512 0.512L788.48 641.536l37.376 201.216c6.144 32.256-6.656 64.512-33.28 84.992-14.848 11.776-32.256 17.92-50.688 17.92zM513.536 770.56l197.632 98.816c5.632 3.072 12.288 4.608 16.896 4.608 7.168 0 13.824-2.048 18.432-6.144l1.024-0.512c11.264-8.192 16.896-22.016 14.336-34.816L721.92 617.984l157.696-148.48c9.728-9.728 12.8-24.064 8.704-36.864l-0.512-1.536c-3.584-12.288-13.824-21.504-27.136-23.552h-1.024l-218.112-37.888-98.304-199.168c-4.608-11.264-17.92-19.456-30.72-19.456s-25.088 8.192-31.232 20.48L384 369.152 165.376 409.6c-13.312 1.536-23.552 10.752-28.16 24.064-3.584 12.8 0.512 27.648 9.728 37.376L304.64 617.984l-41.472 214.528c-2.56 12.288 3.584 26.624 14.336 34.816 5.632 4.096 12.288 6.144 19.968 6.144 5.632 0 11.264-1.536 15.872-4.096l0.512-0.512 199.68-98.304z"  /></svg>